<svg width="1512" height="481" viewBox="0 0 1512 481" fill="none" xmlns="http://www.w3.org/2000/svg">
<g clip-path="url(#clip0_1490_1885)">
<path d="M1772.42 -793.784C1772.47 -793.769 1772.51 -793.753 1772.55 -793.737C1780.46 -793.368 2154.15 -885.039 2150.34 -880.975C2147.94 -878.41 2147.86 -872.494 2147.73 -869.582C2147.13 -856.025 2156.09 -840.297 2166.19 -831.763C2195.51 -806.997 2241.37 -799.17 2255.07 -762.807C2265.95 -733.948 2293.14 -716.747 2303.68 -688.759C2316.66 -654.309 2316.15 -626.554 2283.62 -597.434C2270.69 -585.856 2253.52 -571.236 2245.77 -556.406C2240.22 -545.778 2247.98 -538.635 2253.13 -530.263C2255.93 -525.704 2278.83 -516.363 2284.67 -514.225C2291.89 -511.582 2302.32 -512.007 2310.85 -508.885C2327.83 -502.67 2327.27 -494.243 2331.01 -479.303C2333.95 -467.53 2340.81 -461.488 2347.28 -451.892C2356.42 -438.332 2350.89 -423.228 2352.25 -408.162C2353.76 -391.367 2371.04 -379.959 2379.44 -366.526C2395.21 -341.295 2400.51 -309.695 2403.78 -280.527C2406.56 -255.802 2385.99 -229.213 2359.05 -219.065C2345.29 -213.879 2323.23 -208.883 2310.91 -200.265C2295.62 -189.572 2253.08 -184.421 2260.58 -161.808C2271.44 -129.075 2284.99 -102.212 2280.93 -66.0442C2278.42 -43.685 2258.8 -35.334 2241.47 -20.1157C2223.24 -4.10209 2198.33 2.08516 2175.59 10.6528C2156.62 17.7993 2143.34 15.1981 2124.48 18.0132C2095.45 22.3445 2069.98 40.0513 2041.49 45.6409C2028.28 48.2333 2019.86 45.2589 2005.85 50.8067C1988.66 57.618 1975.52 76.519 1963.89 89.0847C1930.73 124.923 1896.24 135.939 1847.36 144.72C1790.16 154.994 1734.74 163.489 1677.02 170.56C1632.27 176.042 1599.94 180.705 1564 207.025C1530.93 231.251 1502.08 257.421 1465.69 277.439C1446 288.271 1422.65 292.183 1402.65 302.512C1389.96 309.06 1380.71 319.277 1368.52 325.943C1324.63 349.958 1282.82 379.708 1235.89 397.391C1213.61 405.782 1175.2 427.894 1151.56 426.022C1131.31 424.418 1109.13 394.843 1096.83 381.541C1085.8 369.614 1074.24 357.553 1061.26 347.192C1038.9 329.344 999.288 326.016 969.98 322.76C944.858 319.97 919.325 325.717 895.002 322.258C881.033 320.272 853.197 309.589 879.412 299.713C896.034 293.451 915.452 291.606 932.594 285.625C960.008 276.061 1001.15 283.025 1025.71 291.52C1046.69 298.774 1064.05 312.007 1084.67 318.712C1174 347.771 1276.69 319.563 1367.6 285.316C1373.25 283.184 1401.62 274.056 1384.64 276.086C1367 278.194 1352.57 282.713 1335.34 279.622C1298.62 273.033 1258.88 266.794 1220.85 281.12C1198.76 289.443 1181.29 298.837 1160.89 310.814C1132.54 327.459 1157 294.338 1164.8 285.053C1180.04 266.906 1194.75 244.443 1222.63 244.101C1248.03 243.789 1273.33 239.441 1299.2 241.194C1334.14 243.562 1364.68 235.855 1397.77 223.389C1415.31 216.781 1422.76 204.02 1436.26 192.697C1447.68 183.121 1460.96 178.764 1474.87 173.525C1498.51 164.618 1516.9 154.204 1537.2 140.459C1554.82 128.526 1568.39 110.419 1584.89 97.0456C1594.42 89.3237 1605.74 82.4012 1614.61 74.6168C1636.13 55.7107 1652.44 33.4081 1677.1 17.0366C1695.32 4.93927 1712.17 3.51708 1723.13 -14.5132C1734.59 -33.3825 1753.29 -37.9899 1773.39 -46.008C1789.95 -52.6098 1810.82 -79.9602 1827.42 -79.7447C1852.64 -79.4173 1882.98 -91.0136 1904.35 -104.1C1920.35 -113.902 1920.13 -128.901 1922.21 -143.712C1923.52 -152.968 1923.38 -158.948 1920.19 -167.404C1913.22 -185.905 1909.06 -205.067 1902.5 -223.524C1895.34 -243.68 1880.92 -268.797 1886.25 -291.093C1888.24 -299.396 1901.24 -322.666 1897.53 -329.874C1896.36 -332.134 1888.3 -326.017 1890.91 -332.669C1893.99 -340.496 1898.31 -347.269 1899.65 -355.292C1902.61 -372.997 1919.38 -386.32 1933.28 -398.364C1956.76 -418.705 1992.97 -409.816 2017.39 -426.579C2023.45 -430.742 1985.99 -477.184 1990.71 -489.23C1993.81 -497.113 1995.14 -504.261 1995.83 -512.306C1996.72 -522.726 1998.8 -537.622 1990.1 -545.339C1983.74 -550.969 1977.85 -555.706 1974.58 -563.617C1965.7 -585.124 1959.83 -608.474 1965.26 -632.142C1968.15 -644.774 1959.77 -657.898 1955.49 -669.272C1952.4 -677.45 1943.49 -682.797 1940.12 -691.736C1934.81 -705.819 1941.29 -707.307 1942.89 -721.034C1944.72 -736.738 1972.8 -753.758 1951.38 -766.696C1934.41 -776.948 1914.23 -777.21 1893.32 -775.225C1878.61 -773.828 1864.39 -770.114 1850.39 -764.997C1843.61 -762.522 1835.27 -757.267 1828.25 -759.63C1805.71 -767.204 1792.79 -786.268 1772.55 -793.737C1772.46 -793.742 1772.42 -793.757 1772.42 -793.784Z" fill="#CBD4B2" fill-opacity="0.45"/>
</g>
<defs>
<clipPath id="clip0_1490_1885">
<rect width="1512" height="481" fill="white"/>
</clipPath>
</defs>
</svg>
