<svg width="1512" height="1337" viewBox="0 0 1512 1337" fill="none" xmlns="http://www.w3.org/2000/svg">
<path d="M1633.9 -84.2187C1659.49 -78.882 1686.59 -76.7551 1712.93 -73.8075C1718.98 -74.5345 1725.11 -75.1916 1730.72 -74.4631C1740.1 -73.244 1738.08 -80.9874 1738.93 -87.5224C1741.71 -108.956 1728.33 -132.958 1708.62 -146.711C1671.39 -172.677 1622.04 -182.553 1576.44 -190.727C1560.71 -193.548 1547.95 -199.44 1535.2 -207.545C1504.9 -226.799 1468.32 -228.407 1434.75 -239.434C1422.43 -243.479 1409.34 -244.972 1397.74 -249.893C1374.88 -259.587 1350.23 -272.842 1325.24 -276.893L1323.73 -277.139C1305.09 -280.165 1285.16 -283.401 1266.51 -281.7C1243.56 -279.606 1222.78 -275.485 1199.12 -278.371C1149.53 -284.422 1118.29 -304.135 1079.5 -329.86C1068.37 -337.244 1050.74 -339.402 1037.33 -338.165C1027.11 -337.222 1022.84 -331.803 1015.22 -326.755C1003.38 -318.911 989.967 -312.54 975.887 -308.165C944.179 -298.314 914.48 -285.067 879.912 -289.559C840.338 -294.702 826.058 -328.008 790.568 -340.095C761.577 -349.969 742.32 -376.707 722.021 -396.091C704.011 -413.289 669.575 -467.316 636.468 -453.511C618.604 -446.063 610.936 -438.628 589.893 -443.24C574.474 -446.619 557.352 -457.451 541.295 -452.223C511.408 -442.493 449.853 -426.703 424.885 -453.224C413.948 -464.842 375.429 -449.389 357.075 -457.798C340.976 -465.174 323.102 -468.153 307.29 -477.138C295.446 -483.869 285.037 -492.828 270.433 -492.915C250.848 -493.031 228.995 -467.599 207.3 -480.557C186.138 -493.198 181.428 -518.52 152.952 -524.662C122.271 -531.28 99.7054 -530.003 73.4715 -517.411C49.8633 -506.079 42.5036 -512.021 17.3767 -514.655C-7.51832 -517.265 -32.2271 -469.939 -34.5347 -452.182C-36.728 -435.303 -27.9571 -418.747 -28.1978 -402.073C-28.3427 -392.038 -40.1774 -385.58 -45.6864 -377.505C-60.6194 -355.616 -76.8109 -311.996 -56.6483 -287.579C-43.5314 -271.694 -38.8219 -244.425 -20.7931 -232.065C-2.83675 -219.753 8.57004 -215.626 33.318 -209.808C58.9905 -203.772 73.1597 -184.77 80.5228 -163.649C84.0332 -153.579 84.406 -131.38 73.9844 -124.474C63.5749 -117.575 50.5806 -119.751 39.7831 -110.554C33.5986 -105.286 25.0808 -100.188 17.054 -97.1836C1.77681 -91.4651 -9.55235 -75.0373 -22.795 -66.2612C-30.0211 -61.4723 -40.267 -61.171 -46.8223 -56.8267C-60.8273 -47.5453 -75.8357 -31.3044 -77.9092 -15.348C-78.9589 -7.26959 -77.0355 0.688244 -74.8673 8.59128C-72.23 18.2043 -76.6968 28.1143 -78.4402 37.4785C-80.9905 51.1766 -81.7927 64.6639 -80.7102 78.621C-77.9202 114.593 -89.7695 148.413 -82.5843 184.953C-77.2034 212.318 -66.8073 239.371 -56.9014 265.829C-56.0248 268.17 -52.1308 281.817 -47.4428 284.951C-44.5165 286.908 -43.0886 292.686 -42.2999 295.508C-38.6279 308.651 -43.7632 326.132 -51.6507 336.829C-74.5406 367.873 -117.416 386.152 -122.457 424.943C-126.458 455.73 -149.009 478.872 -152.889 508.729C-157.664 545.48 -150.838 572.552 -112.518 593.554C-97.2828 601.904 -77.2213 612.252 -66.2951 624.988C-58.4653 634.115 -64.3888 642.908 -67.4918 652.301C-69.1814 657.415 -89.3492 671.864 -94.55 675.311C-100.977 679.57 -111.224 681.565 -118.818 686.598C-133.933 696.614 -131.471 704.741 -131.695 720.24C-131.871 732.454 -137.171 739.959 -141.284 750.857C-147.095 766.258 -138.258 779.773 -136.142 794.846C-133.784 811.65 -148.009 826.823 -153.118 841.926C-162.713 870.29 -160.669 902.474 -157.197 931.804C-154.254 956.667 -128.161 977.957 -99.6155 981.666C-85.0277 983.562 -62.4112 983.352 -48.4438 988.944C-31.1144 995.881 11.4825 991.086 9.3391 1014.97C6.23651 1049.55 -0.834566 1079 11.3754 1113.5C18.9237 1134.82 39.9379 1138.46 60.28 1149.36C81.6853 1160.83 107.354 1161.13 131.453 1164.26C151.555 1166.87 163.893 1161.25 182.903 1159.64C212.154 1157.17 240.993 1168.62 270.01 1167.51C283.467 1166.99 290.99 1162.13 305.893 1164.32C324.189 1167.02 341.295 1182.5 355.484 1192.11C395.953 1219.55 432.049 1222.36 481.656 1219.66C539.696 1216.49 595.599 1211.99 653.412 1205.56C698.239 1200.58 730.785 1197.66 771.785 1215.13C809.522 1231.21 843.582 1250.18 883.583 1261.37C905.229 1267.42 928.854 1265.86 950.691 1271.34C964.536 1274.83 975.883 1282.69 989.27 1286.4C1037.49 1299.77 1084.99 1319.25 1134.72 1325.71C1158.33 1328.78 1200.78 1341.55 1223.37 1334.25C1242.72 1327.99 1257.57 1293.89 1266.51 1278.01C1274.52 1263.77 1283.03 1249.28 1293.31 1236.13C1311.01 1213.47 1348.82 1201.05 1376.61 1191.08C1400.44 1182.53 1426.61 1182.26 1449.51 1173.24C1462.65 1168.06 1487.32 1151.16 1459.54 1147.55C1441.93 1145.26 1422.6 1147.94 1404.54 1146.05C1375.67 1143.02 1337.19 1159.36 1315.21 1173.37C1296.45 1185.33 1282.56 1202.31 1264.02 1213.65C1183.66 1262.78 1077.23 1258.91 980.897 1246.39C974.901 1245.61 945.194 1243.23 962.197 1241.29C979.856 1239.27 994.936 1240.36 1011 1233.35C1045.26 1218.4 1082.53 1203.09 1122.83 1208.33C1146.24 1211.37 1165.4 1216.53 1187.99 1223.54C1219.39 1233.29 1188.02 1206.5 1178.31 1199.21C1159.32 1184.96 1139.88 1166.36 1112.65 1172.47C1087.85 1178.04 1062.22 1179.64 1037.43 1187.34C1003.94 1197.75 972.45 1197.26 937.385 1192.71C918.796 1190.29 908.634 1179.51 892.904 1171.54C879.6 1164.8 865.669 1163.61 850.933 1161.69C825.88 1158.44 805.595 1152.49 782.693 1143.72C762.81 1136.11 745.461 1121.51 726.344 1112.23C715.305 1106.87 702.7 1102.71 692.294 1097.13C667.023 1083.59 646.048 1065.51 618.303 1055.18C597.801 1047.55 581.068 1050.05 566.284 1034.92C550.813 1019.09 531.559 1018.9 510.15 1015.7C492.523 1013.06 465.961 991.098 449.846 995.149C425.358 1001.31 393.176 996.964 369.381 989.088C351.559 983.189 348.349 968.445 342.942 954.417C339.563 945.651 338.332 939.761 339.504 930.741C342.069 911.004 341.752 891.268 343.923 871.67C346.293 850.269 354.609 822.325 344.326 801.718C340.497 794.044 322.522 774.257 324.494 766.336C325.113 763.853 334.357 767.981 330.297 762.068C325.519 755.111 319.763 749.476 316.627 741.927C309.707 725.267 290.331 716.096 274.049 707.514C246.551 693.018 213.316 710.104 185.717 699.331C178.863 696.656 204.742 642.492 197.389 631.786C192.578 624.779 189.651 618.085 187.144 610.363C183.896 600.362 178.469 586.251 185.188 576.677C190.09 569.691 194.749 563.687 196.124 555.182C199.865 532.057 200.249 507.826 189.565 485.895C183.863 474.19 189.028 459.395 190.604 447.261C191.738 438.536 199.202 431.235 200.441 421.699C202.393 406.676 195.747 406.717 191.058 393.639C185.693 378.678 154.462 368.503 172.366 350.872C186.553 336.902 206.143 331.977 226.953 329.085C241.599 327.049 256.29 327.398 271.097 329.17C278.257 330.027 287.577 333.246 293.881 329.306C314.135 316.646 322.356 294.918 340.442 282.932C353.989 273.954 367.426 250.218 374.327 236.637C383.082 219.406 398.462 204.816 393.548 183.414C391.598 174.918 384.038 166.309 384.616 157.454C385.115 149.827 386.601 142.185 387.585 134.609L395.608 72.868C401.129 30.3871 417.026 -28.8629 365.248 -56.9592C352.22 -64.0282 337.688 -74.1968 326.313 -83.2082C311.123 -95.2425 290.116 -101.605 276.89 -116.471C246.741 -150.358 306.417 -185.176 335.339 -152.667C343.519 -143.473 376.127 -133.975 387.649 -140.219C397.669 -145.65 419.616 -139.376 431.795 -141.546C440.381 -143.075 448.581 -142.118 457.075 -143.911C490.695 -151.007 515.967 -164.712 547.579 -144.079C554.522 -139.547 559.83 -133.618 568.838 -132.213C595.243 -128.094 620.856 -128.504 647.486 -127.487C674.365 -126.46 699.251 -126.567 726.173 -123.069C756.136 -119.175 784.408 -120.651 812.772 -129.395C830.232 -134.777 838.434 -152.557 850.491 -163.419C865.636 -177.065 876.43 -162.874 893.384 -160.671C906.452 -158.973 916.059 -149.526 927.373 -145.11C949.803 -136.355 972.267 -124.993 996.731 -121.814C1015.53 -119.37 1042.17 -113.581 1053.3 -100.337C1067.53 -83.3947 1087.22 -86.2298 1103.8 -75.4091C1118.73 -65.6672 1145.69 -71.3784 1162.18 -69.2362C1184.37 -66.352 1212.24 -67.7303 1230.5 -54.7069C1257.21 -35.659 1277.66 -40.123 1307.93 -41.9771C1324.54 -42.9951 1342.21 -55.7112 1359 -57.6283C1365.55 -58.3756 1372.45 -58.3332 1379.16 -58.1485C1390.01 -57.8495 1419.6 -56.548 1428.53 -60.6797C1441.93 -66.8839 1458.11 -66.3619 1472.89 -70.6112C1488.13 -74.9927 1493.47 -68.855 1506.04 -63.9483C1517.03 -59.6586 1518.21 -38.6617 1535.59 -40.646C1545.9 -41.8233 1547.24 -62.5726 1547.7 -69.6311L1547.72 -69.9898C1548.44 -80.9418 1532.81 -99.1817 1525.84 -107.321L1525.8 -107.37C1518.4 -116.009 1507.93 -131.025 1503.2 -140.915C1501.82 -143.785 1500.25 -164.209 1503.92 -159.028C1506.84 -154.898 1518.39 -148.223 1523.32 -146.775C1564.49 -134.685 1589.26 -93.5281 1633.9 -84.2187Z" fill="#CBD4B2" fill-opacity="0.45"/>
</svg>
