<svg width="1512" height="1795" viewBox="0 0 1512 1795" fill="none" xmlns="http://www.w3.org/2000/svg">
<g clip-path="url(#clip0_1433_1191)">
<path d="M-121.91 -84.2187C-147.499 -78.882 -174.597 -76.7551 -200.936 -73.8075C-206.991 -74.5345 -213.118 -75.1916 -218.724 -74.4631C-228.106 -73.244 -226.087 -80.9874 -226.936 -87.5224C-229.721 -108.956 -216.342 -132.958 -196.625 -146.711C-159.4 -172.677 -110.052 -182.553 -64.4514 -190.727C-48.7145 -193.548 -35.9577 -199.44 -23.2058 -207.545C7.08931 -226.799 43.6756 -228.407 77.2469 -239.434C89.561 -243.479 102.648 -244.972 114.252 -249.893C137.109 -259.587 161.763 -272.842 186.748 -276.893L188.259 -277.139C206.904 -280.165 226.835 -283.401 245.479 -281.7C268.434 -279.606 289.21 -275.485 312.868 -278.371C362.462 -284.422 393.702 -304.135 432.489 -329.86C443.623 -337.244 461.252 -339.402 474.66 -338.165C484.886 -337.222 489.155 -331.803 496.773 -326.755C508.609 -318.911 522.026 -312.54 536.105 -308.165C567.813 -298.314 597.512 -285.067 632.081 -289.559C671.654 -294.702 685.934 -328.008 721.424 -340.095C750.416 -349.969 769.672 -376.707 789.971 -396.091C807.981 -413.289 842.417 -467.316 875.524 -453.511C893.388 -446.063 901.057 -438.628 922.1 -443.24C937.518 -446.619 954.64 -457.451 970.697 -452.223C1000.58 -442.493 1062.14 -426.703 1087.11 -453.224C1098.04 -464.842 1136.56 -449.389 1154.92 -457.798C1171.02 -465.174 1188.89 -468.153 1204.7 -477.138C1216.55 -483.869 1226.96 -492.828 1241.56 -492.915C1261.14 -493.031 1283 -467.599 1304.69 -480.557C1325.85 -493.198 1330.56 -518.52 1359.04 -524.662C1389.72 -531.28 1412.29 -530.003 1438.52 -517.411C1462.13 -506.079 1469.49 -512.021 1494.62 -514.655C1519.51 -517.265 1544.22 -469.939 1546.53 -452.182C1548.72 -435.303 1539.95 -418.747 1540.19 -402.073C1540.33 -392.038 1552.17 -385.58 1557.68 -377.505C1572.61 -355.616 1588.8 -311.996 1568.64 -287.579C1555.52 -271.694 1550.81 -244.425 1532.79 -232.065C1514.83 -219.753 1503.42 -215.626 1478.67 -209.808C1453 -203.772 1438.83 -184.77 1431.47 -163.649C1427.96 -153.579 1427.59 -131.38 1438.01 -124.474C1448.42 -117.575 1461.41 -119.751 1472.21 -110.554C1478.39 -105.286 1486.91 -100.188 1494.94 -97.1836C1510.22 -91.4651 1521.54 -75.0373 1534.79 -66.2612C1542.01 -61.4723 1552.26 -61.171 1558.81 -56.8267C1572.82 -47.5453 1587.83 -31.3044 1589.9 -15.348C1590.95 -7.26959 1589.03 0.688244 1586.86 8.59128C1584.22 18.2043 1588.69 28.1143 1590.43 37.4785C1592.98 51.1766 1593.78 64.6639 1592.7 78.621C1589.91 114.593 1601.76 148.413 1594.58 184.953C1589.2 212.318 1578.8 239.371 1568.89 265.829C1568.02 268.17 1564.12 281.817 1559.43 284.951C1556.51 286.908 1555.08 292.686 1554.29 295.508C1550.62 308.651 1555.76 326.132 1563.64 336.829C1586.53 367.873 1629.41 386.152 1634.45 424.943C1638.45 455.73 1661 478.872 1664.88 508.729C1669.66 545.48 1662.83 572.552 1624.51 593.554C1609.27 601.904 1589.21 612.252 1578.29 624.988C1570.46 634.115 1576.38 642.908 1579.48 652.301C1581.17 657.415 1601.34 671.864 1606.54 675.311C1612.97 679.57 1623.22 681.565 1630.81 686.598C1645.92 696.614 1643.46 704.741 1643.69 720.24C1643.86 732.454 1649.16 739.959 1653.28 750.857C1659.09 766.258 1650.25 779.773 1648.13 794.846C1645.78 811.65 1660 826.823 1665.11 841.926C1674.7 870.29 1672.66 902.474 1669.19 931.804C1666.25 956.667 1640.15 977.957 1611.61 981.666C1597.02 983.562 1574.4 983.352 1560.44 988.944C1543.11 995.881 1500.51 991.086 1502.65 1014.97C1505.76 1049.55 1512.83 1079 1500.62 1113.5C1493.07 1134.82 1472.05 1138.46 1451.71 1149.36C1430.31 1160.83 1404.64 1161.13 1380.54 1164.26C1360.44 1166.87 1348.1 1161.25 1329.09 1159.64C1299.84 1157.17 1271 1168.62 1241.98 1167.51C1228.52 1166.99 1221 1162.13 1206.1 1164.32C1187.8 1167.02 1170.7 1182.5 1156.51 1192.11C1116.04 1219.55 1079.94 1222.36 1030.34 1219.66C972.296 1216.49 916.393 1211.99 858.58 1205.56C813.753 1200.58 781.207 1197.66 740.208 1215.13C702.471 1231.21 668.41 1250.18 628.409 1261.37C606.764 1267.42 583.138 1265.86 561.301 1271.34C547.456 1274.83 536.109 1282.69 522.722 1286.4C474.502 1299.77 427.007 1319.25 377.269 1325.71C353.666 1328.78 311.21 1341.55 288.621 1334.25C269.271 1327.99 254.42 1293.89 245.482 1278.01C237.467 1263.77 228.962 1249.28 218.686 1236.13C200.986 1213.47 163.174 1201.05 135.38 1191.08C111.554 1182.53 85.3812 1182.26 62.486 1173.24C49.3379 1168.06 24.6717 1151.16 52.4518 1147.55C70.0659 1145.26 89.3946 1147.94 107.451 1146.05C136.327 1143.02 174.798 1159.36 196.777 1173.37C215.545 1185.33 229.434 1202.31 247.976 1213.65C328.334 1262.78 434.762 1258.91 531.095 1246.39C537.091 1245.61 566.798 1243.23 549.795 1241.29C532.136 1239.27 517.056 1240.36 500.989 1233.35C466.735 1218.4 429.459 1203.09 389.16 1208.33C365.75 1211.37 346.595 1216.53 324 1223.54C292.599 1233.29 323.974 1206.5 333.686 1199.21C352.667 1184.96 372.113 1166.36 399.34 1172.47C424.143 1178.04 449.77 1179.64 474.562 1187.34C508.049 1197.75 539.542 1197.26 574.607 1192.71C593.197 1190.29 603.358 1179.51 619.089 1171.54C632.392 1164.8 646.323 1163.61 661.059 1161.69C686.112 1158.44 706.397 1152.49 729.299 1143.72C749.182 1136.11 766.531 1121.51 785.648 1112.23C796.687 1106.87 809.293 1102.71 819.698 1097.13C844.97 1083.59 865.944 1065.51 893.69 1055.18C914.191 1047.55 930.924 1050.05 945.708 1034.92C961.179 1019.09 980.433 1018.9 1001.84 1015.7C1019.47 1013.06 1046.03 991.098 1062.15 995.149C1086.63 1001.31 1118.82 996.964 1142.61 989.088C1160.43 983.189 1163.64 968.445 1169.05 954.417C1172.43 945.651 1173.66 939.761 1172.49 930.741C1169.92 911.004 1170.24 891.268 1168.07 871.67C1165.7 850.269 1157.38 822.325 1167.67 801.718C1171.49 794.044 1189.47 774.257 1187.5 766.336C1186.88 763.853 1177.63 767.981 1181.7 762.068C1186.47 755.111 1192.23 749.476 1195.36 741.927C1202.29 725.267 1221.66 716.096 1237.94 707.514C1265.44 693.018 1298.68 710.104 1326.28 699.331C1333.13 696.656 1307.25 642.492 1314.6 631.786C1319.41 624.779 1322.34 618.085 1324.85 610.363C1328.1 600.362 1333.52 586.251 1326.8 576.677C1321.9 569.691 1317.24 563.687 1315.87 555.182C1312.13 532.057 1311.74 507.826 1322.43 485.895C1328.13 474.19 1322.96 459.395 1321.39 447.261C1320.25 438.536 1312.79 431.235 1311.55 421.699C1309.6 406.676 1316.25 406.717 1320.93 393.639C1326.3 378.678 1357.53 368.503 1339.63 350.872C1325.44 336.902 1305.85 331.977 1285.04 329.085C1270.39 327.049 1255.7 327.398 1240.9 329.17C1233.74 330.027 1224.42 333.246 1218.11 329.306C1197.86 316.646 1189.64 294.918 1171.55 282.932C1158 273.954 1144.57 250.218 1137.67 236.637C1128.91 219.406 1113.53 204.816 1118.44 183.414C1120.39 174.918 1127.95 166.309 1127.38 157.454C1126.88 149.827 1125.39 142.185 1124.41 134.609L1116.38 72.868C1110.86 30.3871 1094.97 -28.8629 1146.74 -56.9592C1159.77 -64.0282 1174.3 -74.1968 1185.68 -83.2082C1200.87 -95.2425 1221.88 -101.605 1235.1 -116.471C1265.25 -150.358 1205.58 -185.176 1176.65 -152.667C1168.47 -143.473 1135.86 -133.975 1124.34 -140.219C1114.32 -145.65 1092.38 -139.376 1080.2 -141.546C1071.61 -143.075 1063.41 -142.118 1054.92 -143.911C1021.3 -151.007 996.025 -164.712 964.413 -144.079C957.47 -139.547 952.162 -133.618 943.154 -132.213C916.749 -128.094 891.136 -128.504 864.506 -127.487C837.628 -126.46 812.741 -126.567 785.819 -123.069C755.856 -119.175 727.584 -120.651 699.22 -129.395C681.76 -134.777 673.558 -152.557 661.502 -163.419C646.356 -177.065 635.562 -162.874 618.609 -160.671C605.54 -158.973 595.933 -149.526 584.619 -145.11C562.19 -136.355 539.725 -124.993 515.261 -121.814C496.461 -119.37 469.823 -113.581 458.696 -100.337C444.464 -83.3947 424.768 -86.2298 408.189 -75.4091C393.264 -65.6672 366.301 -71.3784 349.817 -69.2362C327.622 -66.352 299.752 -67.7303 281.491 -54.7069C254.782 -35.659 234.33 -40.123 204.064 -41.9771C187.448 -42.9951 169.778 -55.7112 152.99 -57.6283C146.445 -58.3756 139.538 -58.3332 132.835 -58.1485C121.977 -57.8495 92.3908 -56.548 83.4652 -60.6797C70.0628 -66.8839 53.8842 -66.3619 39.1055 -70.6112C23.8669 -74.9927 18.5205 -68.855 5.95021 -63.9483C-5.03955 -59.6586 -6.21838 -38.6617 -23.5949 -40.646C-33.9051 -41.8233 -35.2511 -62.5726 -35.7089 -69.6311L-35.7324 -69.9898C-36.4481 -80.9418 -20.8223 -99.1817 -13.8494 -107.321L-13.8074 -107.37C-6.40686 -116.009 4.06698 -131.025 8.79702 -140.915C10.1697 -143.785 11.7382 -164.209 8.07194 -159.028C5.14972 -154.898 -6.39698 -148.223 -11.3277 -146.775C-52.4971 -134.685 -77.2723 -93.5281 -121.91 -84.2187Z" fill="#CBD4B2" fill-opacity="0.45"/>
</g>
<defs>
<clipPath id="clip0_1433_1191">
<rect width="1512" height="1795" fill="white"/>
</clipPath>
</defs>
</svg>
